<svg width="108" height="84" viewBox="0 0 108 84" fill="none" xmlns="http://www.w3.org/2000/svg">
<path d="M96.9635 6.07972e-06C95.7684 -0.00125099 94.5823 0.19244 93.4592 0.57225V0.566319L12.1065 26.8607C8.62438 27.7664 5.55669 29.7059 3.37142 32.3833C1.18615 35.0606 0.0032959 38.3289 0.0032959 41.6894C0.0032959 45.0498 1.18615 48.318 3.37142 50.9954C5.55669 53.6728 8.62438 55.6122 12.1065 56.5179L22.4682 59.8669L20.2091 59.1366C18.8582 67.0069 15.0186 74.3259 9.17886 80.1622C9.13767 80.2054 9.09437 80.2476 9.05107 80.2898C8.75099 80.6161 8.55781 81.0156 8.49438 81.4408C8.43095 81.866 8.49992 82.2992 8.69315 82.6892C8.88637 83.0791 9.19576 83.4094 9.58468 83.641C9.97359 83.8726 10.4258 83.9958 10.8877 83.9961C11.0143 83.9964 11.1407 83.9875 11.2658 83.9696C11.3555 83.9563 11.4444 83.9383 11.5319 83.9156C24.187 81.3403 35.825 75.5521 45.1507 67.1951L53.4667 69.8835V50.933L50.8401 48.4928L50.8475 48.4811C50.659 48.2804 50.5368 48.0334 50.4953 47.7698C50.4538 47.5062 50.4949 47.2371 50.6137 46.9947C50.7324 46.7522 50.9238 46.5466 51.1649 46.4026C51.406 46.2585 51.6867 46.1821 51.9733 46.1823H70.0332C71.0454 46.2156 72.0041 46.6129 72.7073 47.2904C73.4105 47.9679 73.8031 48.8727 73.8025 49.814V76.4628L93.4519 82.8133C94.9987 83.3361 96.6583 83.5048 98.2902 83.3051C99.9221 83.1054 101.478 82.5432 102.827 81.6662C104.175 80.7891 105.277 79.623 106.037 78.2665C106.798 76.91 107.196 75.4032 107.197 73.8735V9.51404C107.197 6.99127 106.119 4.57174 104.2 2.7876C102.281 1.00345 99.678 0.000786882 96.9635 6.07972e-06ZM63.5633 41.6898C61.5386 41.6898 59.5594 41.1318 57.8759 40.0864C56.1924 39.041 54.8803 37.5551 54.1055 35.8167C53.3307 34.0782 53.1279 32.1652 53.5229 30.3197C53.9179 28.4741 54.8929 26.7789 56.3246 25.4483C57.7563 24.1178 59.5804 23.2116 61.5662 22.8445C63.552 22.4774 65.6103 22.6658 67.4809 23.3859C69.3515 24.106 70.9503 25.3255 72.0751 26.89C73.2 28.4546 73.8004 30.2941 73.8004 32.1758C73.8004 34.6991 72.7219 37.119 70.802 38.9032C68.8822 40.6874 66.2784 41.6898 63.5633 41.6898Z" fill="url(#paint0_linear)"/>
<defs>
<linearGradient id="paint0_linear" x1="102.052" y1="-1.76392" x2="47.8878" y2="104.908" gradientUnits="userSpaceOnUse">
<stop stop-color="#8a2be2"/>
<stop offset="1" stop-color="#6d6c80"/>
</linearGradient>
</defs>
</svg>
